<svg width="408" height="79" viewBox="0 0 408 79" fill="none" xmlns="http://www.w3.org/2000/svg">
<g clip-path="url(#clip0)">
<rect width="408" height="79" fill="white"/>
<path d="M32.74 23.76L42.99 10.94H149.71L138.96 23.76H74.52L53.6 56.28L29.23 56L52.32 23.76H32.74Z" fill="#010202"/>
<path d="M94.6 8.77L99.84 0H123.88L118.36 8.77H94.6Z" fill="#E62F32"/>
<path d="M9.33 59.68L0 72.97H64.77C64.77 72.97 72.83 73.54 78.2 65.76C83.57 57.98 103.8 28.57 103.8 28.57H81.31L62.36 55.6C60.68 58.15 57.84 59.68 54.78 59.68H9.33Z" fill="#E62F32"/>
<path d="M105.18 51.81C105.34 51.81 105.53 51.81 105.73 51.82C105.94 51.83 106.23 51.83 106.6 51.83C108.2 51.83 109.39 51.64 110.18 51.26C110.97 50.88 111.75 50.03 112.51 48.77C116.77 41.75 118.54 39.3 124.41 30.48C121.62 30.48 120.23 30.48 117.44 30.48C115.05 30.48 113.25 30.77 112.03 31.33C110.82 31.89 109.57 32.98 108.38 34.47C107.4 34.41 106.91 34.37 105.92 34.31C106.8 33.33 107.62 32.32 108.37 31.27C109.12 30.22 109.81 29.11 110.46 27.93C111.36 28.05 112.27 28.15 113.19 28.21C114.11 28.27 115.06 28.3 116.04 28.3C116.41 28.3 116.78 28.3 117.14 28.29C117.5 28.28 118.06 28.26 118.82 28.21C127 28.21 131.07 28.21 139.18 28.22C140.14 28.22 140.63 28.22 141.59 28.22C142.69 28.22 143.72 28.2 144.66 28.15C145.61 28.1 146.55 28.03 147.48 27.94C146.58 29.33 145.86 30.52 145.29 31.54C144.72 32.56 144.25 33.5 143.86 34.37C142.82 34.38 142.3 34.39 141.26 34.4C141.34 34.19 141.42 33.99 141.5 33.79C141.58 33.6 141.66 33.4 141.73 33.21C142.07 32.32 141.91 31.64 141.25 31.21C140.59 30.79 139.29 30.54 137.36 30.48C134.64 30.48 133.28 30.48 130.56 30.47C124.9 39.06 123.13 41.52 119 48.3C118.79 48.64 118.61 48.97 118.47 49.26C118.33 49.56 118.23 49.82 118.17 50.04C117.99 50.69 118.14 51.16 118.62 51.44C119.1 51.72 120 51.86 121.34 51.86C121.71 51.86 122 51.86 122.22 51.85C122.44 51.85 122.64 51.84 122.83 51.84C122.55 52.34 122.41 52.59 122.13 53.11C120.49 53.04 118.92 52.99 117.43 52.95C115.93 52.91 114.52 52.89 113.21 52.89C112.31 52.89 111.2 52.9 109.87 52.92C108.55 52.94 106.71 52.99 104.35 53.06C104.68 52.56 104.85 52.31 105.18 51.81Z" fill="black"/>
<path d="M140.13 52C140.66 52 140.93 52 141.46 52.01C142.87 52.02 143.94 51.81 144.67 51.38C145.4 50.95 146.36 49.77 147.54 47.91C151.26 41.98 152.96 39.62 157.65 32.4C157.8 32.19 157.93 31.99 158.04 31.81C158.16 31.63 158.23 31.48 158.28 31.36C158.5 30.77 158.36 30.33 157.84 30.04C157.32 29.75 156.43 29.6 155.15 29.6C154.78 29.6 154.59 29.6 154.22 29.6C154.66 28.93 154.88 28.59 155.34 27.9C156.74 28 158.03 28.07 159.19 28.11C160.36 28.16 161.42 28.18 162.38 28.18C163.86 28.18 165.86 28.14 168.36 28.04C170.87 27.95 172.61 27.9 173.58 27.9C177.76 27.9 180.76 28.59 182.63 29.86C184.5 31.13 185.06 32.82 184.35 34.78C183.68 36.65 182.14 38.16 179.66 39.43C177.18 40.7 173.86 41.67 169.66 42.41C171.09 44.41 171.83 45.38 173.28 47.37C173.37 47.52 173.52 47.74 173.72 48.05C175.72 50.93 178.31 52.51 181.55 52.54C181.66 52.54 181.84 52.54 182.08 52.53C182.32 52.52 182.5 52.52 182.61 52.52C182.3 53.01 182.14 53.26 181.83 53.77C180.76 53.86 179.87 53.93 179.17 53.97C178.46 54.01 177.84 54.03 177.33 54.02C175.28 54 173.6 53.77 172.28 53.34C170.96 52.91 169.97 52.26 169.29 51.42C168.8 50.85 167.97 49.55 166.77 47.61C165.57 45.67 164.6 44.18 163.86 43.05C163.12 43.08 162.38 43.1 161.63 43.11C160.89 43.12 160.12 43.13 159.35 43.12C159.05 43.12 158.62 43.11 158.04 43.1C157.46 43.09 157.01 43.08 156.69 43.08C155.1 45.64 154.35 46.87 152.8 49.51C152.66 49.76 152.55 49.97 152.46 50.15C152.37 50.33 152.31 50.48 152.28 50.6C152.11 51.18 152.24 51.58 152.67 51.78C153.1 51.98 154.1 52.08 155.67 52.09C155.98 52.09 156.14 52.09 156.45 52.1C156.13 52.58 155.97 52.83 155.65 53.33C154.91 53.31 153.85 53.27 152.51 53.23C149.88 53.15 148.17 53.13 147.42 53.12C146.26 53.11 144.19 53.15 141.24 53.2C140.44 53.21 139.8 53.22 139.31 53.23C139.66 52.73 139.81 52.48 140.13 52ZM157.66 41.75C157.95 41.77 158.25 41.79 158.57 41.79C158.89 41.79 159.37 41.79 160.01 41.8C164.84 41.82 168.8 41.34 171.91 40.3C175.02 39.27 176.89 37.84 177.59 35.87C178.21 34.11 177.89 32.66 176.56 31.64C175.23 30.62 172.96 30.08 169.71 30.08C169.21 30.08 168.58 30.09 167.83 30.12C167.08 30.15 166.23 30.19 165.3 30.25C163.02 33.71 161.43 36.05 160.28 37.77C159.12 39.49 158.26 40.78 157.66 41.75Z" fill="black"/>
<path d="M184.15 52.34C184.48 52.37 184.73 52.39 184.89 52.4C185.05 52.41 185.19 52.42 185.31 52.42C187.31 52.44 190.12 51.11 193.72 48.64C194.78 47.91 195.62 47.35 196.22 46.94C200 44.5 201.89 43.32 205.75 40.79C208.17 39.2 210.82 37.38 213.75 35.2C216.68 33.02 219.81 30.53 223.2 27.52C225.17 27.52 226.16 27.52 228.13 27.52C227.85 28.49 227.61 29.67 227.42 31.01C227.23 32.34 227.01 34.49 226.86 37.15C226.7 40.46 226.69 41.93 226.66 44.93C226.66 45.38 226.66 46.01 226.66 46.81C226.63 49.63 226.69 51.34 226.85 51.8C226.98 52.17 227.25 52.42 227.68 52.55C228.11 52.68 229 52.75 230.37 52.76C230.05 53.25 229.89 53.49 229.57 53.99C227.92 53.9 226.47 53.82 225.22 53.77C223.97 53.72 222.93 53.69 222.11 53.68C221.13 53.67 219.95 53.68 218.57 53.7C217.2 53.72 215.65 53.77 213.92 53.82C214.24 53.32 214.4 53.07 214.71 52.59C214.91 52.59 215.01 52.59 215.21 52.59C216.87 52.61 218.06 52.48 218.78 52.23C219.5 51.97 219.97 51.51 220.19 50.85C220.23 50.74 220.26 50.54 220.29 50.24C220.3 50.16 220.31 50.09 220.32 50.04C220.47 47.74 220.53 46.64 220.68 44.4C219.22 44.38 217.82 44.36 216.47 44.33C215.12 44.31 213.79 44.29 212.46 44.28C211.02 44.27 209.63 44.26 208.3 44.26C206.97 44.26 205.58 44.26 204.13 44.27C201.32 46.2 199.94 47.14 197.15 49.1C196.36 49.68 195.81 50.12 195.52 50.42C195.22 50.72 195.04 50.98 194.97 51.21C194.85 51.58 195.07 51.88 195.61 52.09C196.15 52.3 196.97 52.42 198.07 52.43C198.37 52.43 198.51 52.43 198.81 52.44C198.48 52.93 198.32 53.17 197.99 53.67C197.46 53.64 196.72 53.6 195.77 53.55C193.33 53.43 191.69 53.38 190.86 53.37C189.98 53.36 188.92 53.37 187.68 53.4C186.43 53.43 185.01 53.47 183.41 53.53C183.73 53.06 183.87 52.82 184.15 52.34ZM206.31 42.86C208.14 42.87 209.05 42.88 210.87 42.89C213.71 42.91 215.78 42.92 217.09 42.92C218.4 42.92 219.58 42.92 220.65 42.9C220.87 38.87 220.99 36.87 221.59 31.87C215.24 36.88 212.23 38.87 206.31 42.86Z" fill="black"/>
<path d="M254.34 28.08C256.56 28.23 258.25 28.32 259.39 28.36C260.53 28.4 261.53 28.42 262.39 28.42C263.45 28.42 264.65 28.39 266.01 28.34C267.37 28.29 268.84 28.21 270.42 28.11C270.01 28.78 269.81 29.11 269.4 29.75C269.09 29.75 268.93 29.75 268.62 29.75C267.27 29.75 266.23 29.9 265.51 30.2C264.79 30.5 264.07 31.1 263.37 31.96C262.47 33.08 259.52 37.75 255.02 44.46C253.72 46.39 252.72 47.88 251.98 48.96C248.97 53.53 245.67 57.02 242.13 58.93C238.59 60.84 233.69 61.98 227.48 62.13C227.25 61.47 227.14 61.15 226.9 60.51C231.3 60.45 234.83 59.57 237.49 58.01C240.14 56.45 242.82 53.46 245.46 49.48C249.55 43.35 251.51 40.85 256.03 33.54C256.24 33.2 256.42 32.89 256.57 32.61C256.72 32.33 256.82 32.12 256.87 31.99C257.17 31.11 257.08 30.5 256.59 30.19C256.1 29.88 254.97 29.73 253.22 29.72C253.68 29.09 253.9 28.76 254.34 28.08Z" fill="black"/>
<path d="M263.83 53.1C264.35 53.11 264.61 53.11 265.13 53.11C266.51 53.12 267.58 52.91 268.32 52.48C269.06 52.05 270.1 50.84 271.42 48.93C275.43 43.06 277.4 40.56 281.73 33.45C281.95 33.06 282.14 32.72 282.29 32.41C282.44 32.1 282.54 31.85 282.61 31.66C282.83 31 282.71 30.52 282.24 30.22C281.77 29.93 280.89 29.78 279.58 29.77C279.34 29.77 279.22 29.77 278.97 29.77C279.35 29.12 279.54 28.78 279.92 28.1C282.91 28.18 285.67 28.25 288.2 28.29C290.73 28.33 293.16 28.36 295.48 28.36C296.9 28.36 301.62 28.3 309.65 28.18C310.58 28.16 311.04 28.15 311.97 28.13C311.29 29.18 310.64 30.24 310.04 31.31C309.43 32.38 308.88 33.45 308.38 34.53C307.34 34.55 306.82 34.56 305.78 34.59C305.84 34.48 305.9 34.36 305.95 34.24C306 34.12 306.07 33.94 306.15 33.69C306.55 32.5 306.22 31.64 305.16 31.19C304.1 30.74 301 30.5 295.88 30.49C295.16 30.49 294.8 30.49 294.09 30.49C293.5 30.49 292.86 30.5 292.16 30.51C291.46 30.52 290.54 30.55 289.42 30.6C288.31 32.47 287.22 34.23 286.15 35.92C285.08 37.6 284.03 39.2 282.99 40.76C283.15 40.76 283.39 40.77 283.73 40.78C286.33 40.87 288.64 40.9 290.62 40.91C291.04 40.91 291.25 40.91 291.67 40.92C295.1 40.94 297.33 40.79 298.37 40.45C299.41 40.12 300.24 39.48 300.88 38.51C301.72 38.63 302.14 38.69 302.98 38.81C302.01 39.94 301.16 41.03 300.43 42.08C299.7 43.14 299.1 44.16 298.63 45.17C297.67 45.19 297.2 45.2 296.24 45.22C296.28 45.16 296.32 45.09 296.35 45.01C296.56 44.64 296.69 44.38 296.74 44.24C297 43.56 296.71 43.1 295.9 42.86C295.08 42.62 292.65 42.49 288.59 42.47C288.24 42.47 288.06 42.47 287.71 42.46C286.77 42.45 285.82 42.45 284.88 42.46C283.94 42.47 282.94 42.48 281.87 42.49C280.52 44.38 279.32 46.08 278.23 47.67C277.14 49.26 276.16 50.78 275.27 52.28C276.71 52.39 278.2 52.48 279.74 52.54C281.28 52.6 283.35 52.64 285.94 52.67C290.1 52.71 292.97 52.48 294.55 51.97C296.13 51.47 297.59 50.42 298.94 48.87C299.85 48.96 300.31 49.01 301.22 49.1C300.2 50.19 299.35 51.19 298.68 52.08C298 52.97 297.43 53.83 296.95 54.66C293.39 54.55 290.09 54.46 287.04 54.39C283.99 54.32 281.16 54.27 278.54 54.25C276.57 54.23 274.47 54.23 272.22 54.23C269.98 54.24 266.9 54.27 262.98 54.32C263.33 53.84 263.5 53.59 263.83 53.1Z" fill="black"/>
<path d="M315.08 53.55C315.24 53.55 315.42 53.56 315.62 53.56C315.82 53.57 316.1 53.57 316.46 53.58C318.01 53.59 319.19 53.4 320.01 53.02C320.82 52.63 321.68 51.77 322.6 50.45C327.7 43.13 330.25 40.24 335.45 30.82C332.71 30.82 331.34 30.81 328.61 30.81C326.27 30.81 324.53 31.11 323.38 31.71C322.23 32.31 321.07 33.47 319.91 35.08C318.95 35.01 318.48 34.97 317.52 34.9C318.37 33.85 319.14 32.77 319.82 31.65C320.5 30.53 321.09 29.35 321.6 28.1C322.49 28.23 323.39 28.33 324.3 28.4C325.21 28.47 326.14 28.5 327.09 28.5C327.45 28.5 327.81 28.5 328.17 28.49C328.52 28.48 329.07 28.45 329.81 28.41C337.82 28.42 341.83 28.42 349.88 28.43C350.84 28.43 351.32 28.43 352.27 28.43C353.36 28.43 354.38 28.41 355.32 28.36C356.26 28.31 357.19 28.24 358.1 28.14C357.34 29.62 356.71 30.88 356.2 31.98C355.69 33.07 355.24 34.08 354.87 35.02C353.84 35.03 353.32 35.04 352.28 35.06C352.36 34.83 352.44 34.61 352.51 34.41C352.59 34.2 352.66 33.99 352.73 33.79C353.04 32.83 352.86 32.1 352.17 31.65C351.49 31.2 350.19 30.93 348.27 30.87C345.58 30.87 344.23 30.86 341.54 30.86C336.51 40.03 334.02 42.91 329.05 50.02C328.8 50.38 328.58 50.72 328.4 51.03C328.22 51.34 328.09 51.61 328 51.84C327.74 52.51 327.83 53 328.27 53.28C328.7 53.56 329.58 53.71 330.89 53.72C331.25 53.72 331.54 53.72 331.76 53.72C331.98 53.72 332.18 53.71 332.36 53.72C332.03 54.23 331.87 54.49 331.54 55.01C329.94 54.93 328.4 54.87 326.94 54.83C325.47 54.79 324.1 54.76 322.81 54.75C321.93 54.74 320.84 54.75 319.55 54.76C318.26 54.77 316.46 54.81 314.16 54.87C314.51 54.32 314.7 54.06 315.08 53.55Z" fill="black"/>
<path d="M390.14 27.15C395.65 27.15 399.72 28.45 402.32 30.77C404.91 33.09 405.65 36.04 404.43 39.35C403.66 41.45 402.25 43.44 400.2 45.38C398.16 47.32 395.7 49.01 392.86 50.5C389.54 52.23 385.89 53.59 381.92 54.55C377.94 55.51 373.92 56 369.84 55.98C364.34 55.95 360.38 54.97 357.92 53.13C355.46 51.29 354.85 48.9 356.07 45.84C356.85 43.88 358.24 41.91 360.23 39.86C362.22 37.8 364.61 35.88 367.37 34.1C370.52 32.08 374.09 30.35 378.07 29.09C382.05 27.83 386.06 27.15 390.14 27.15ZM387.08 29.86C381.45 29.86 376.5 31.58 372.16 34.56C367.82 37.54 364.81 41.13 363.14 45.31C362.04 48.04 362.34 50.1 364.03 51.57C365.72 53.04 368.71 53.81 373.03 53.83C378.63 53.86 383.64 52.58 388.07 50.11C392.5 47.64 395.59 44.48 397.23 40.07C398.36 37.05 398.02 34.5 396.27 32.68C394.5 30.86 391.44 29.86 387.08 29.86Z" fill="black"/>
<path d="M106.58 62.12C106.38 62.1 106.28 62.09 106.08 62.07C106.3 61.68 106.49 61.31 106.63 61.01C107.27 59.63 106.59 59.32 102.87 59.32C101.52 59.32 101.23 59.41 100.85 59.92C99.19 62.08 98.42 63.13 96.93 65.27C97.67 65.27 98.04 65.27 98.78 65.27C100.91 65.27 101.26 65 103.01 63.05C103.17 63.09 103.24 63.11 103.4 63.14C101.84 65.26 101.1 66.31 99.66 68.48C99.49 68.43 99.4 68.41 99.23 68.36C99.54 67.85 99.69 67.57 99.85 67.15C100 66.76 100.03 66.55 99.96 66.43C99.79 66.2 99.19 66.08 98.25 66.08C97.51 66.08 97.14 66.08 96.4 66.08C95.69 67.11 95.34 67.63 94.66 68.68C93.32 70.74 92.69 71.86 92.59 72.16C92.39 72.74 92.86 72.99 94.18 72.99C96.5 72.99 97.88 72.69 99.31 72.04C100.21 71.63 101.01 70.95 102.36 69.7C102.49 69.78 102.55 69.81 102.67 69.89C101.54 71.42 100.98 72.2 99.86 73.81C95.05 73.81 92.65 73.81 87.87 73.81C87.92 73.65 87.95 73.57 88 73.41C89.4 73.16 89.66 73 90.51 71.6C93.12 67.33 94.42 65.4 97.44 61.34C97.79 60.88 98.26 60.14 98.39 59.86C98.69 59.23 98.43 59.05 97.03 58.91C97.1 58.76 97.14 58.69 97.22 58.54C101.91 58.54 104.27 58.54 109 58.55C107.98 60 107.5 60.71 106.58 62.12Z" fill="black" stroke="black" stroke-width="0.25" stroke-miterlimit="10"/>
<path d="M117.26 71.29C114.85 73.51 114.09 74.04 112.97 74.05C112.37 74.05 111.98 73.65 112.3 72.72C112.38 72.48 112.54 72.15 113.31 70.91C114.27 69.37 114.76 68.61 115.76 67.12C116.23 66.41 116.7 65.58 116.81 65.31C116.98 64.9 116.87 64.65 116.51 64.65C115.55 64.65 113.99 65.75 111.68 67.91C110.02 69.46 109.63 69.91 107.21 73.83C106.5 73.83 106.14 73.83 105.43 73.83C107.49 70.35 108.51 68.76 110.72 65.55C110.79 65.44 110.87 65.3 110.93 65.16C111.12 64.7 110.84 64.56 109.63 64.54C109.69 64.39 109.72 64.32 109.78 64.17C111.86 63.81 112.57 63.72 113.95 63.47C113.98 63.49 114 63.5 114.03 63.52C112.54 65.51 111.83 66.5 110.43 68.53C114.2 64.8 116.44 63.48 117.97 63.48C119 63.48 119.28 64.05 118.94 64.88C118.77 65.29 118.48 65.77 118.14 66.25C116.86 68.11 116.25 69.05 115.03 70.98C114.49 71.84 114.25 72.25 114.18 72.45C114.11 72.67 114.13 72.89 114.41 72.89C114.74 72.89 115.31 72.49 116.31 71.61C116.54 71.42 116.79 71.2 117.03 70.99C117.13 71.1 117.17 71.16 117.26 71.29Z" fill="black" stroke="black" stroke-width="0.25" stroke-miterlimit="10"/>
<path d="M133.13 65.21C133.18 65.62 133.03 65.99 132.87 66.38C132.1 68.3 129.2 70.18 126.96 70.18C126.7 70.18 126.44 70.16 126.24 70.11C126.18 70.09 126.13 70.09 126.08 70.09C125.67 70.09 125.04 70.56 124.86 71.06C124.71 71.49 125.24 71.8 126.21 72.07C128.32 72.62 129.05 73.68 128.54 75.2C127.8 77.4 125.38 79.15 122.21 79.15C119.77 79.15 118.54 78.16 119.15 76.3C119.58 74.99 120.26 74.31 123.1 72.87C122.76 72.6 122.67 72.24 122.78 71.93C123.03 71.23 123.83 70.52 125.34 69.93C124.17 69.46 123.92 68.61 124.39 67.42C125.3 65.07 128.4 63.51 130.83 63.51C131.75 63.51 132.45 63.72 132.92 64.15C133.05 64.29 133.16 64.33 133.23 64.33C133.81 64.33 134.1 64.33 134.68 64.33C134.53 64.69 134.45 64.86 134.31 65.22C133.84 65.21 133.61 65.21 133.13 65.21ZM124.29 73.39C124.01 73.29 123.8 73.22 123.57 73.12C123.35 73.12 122.06 73.96 121.58 74.41C121.06 74.88 120.81 75.29 120.61 75.88C120.02 77.67 120.86 78.55 122.77 78.55C124.71 78.55 126.38 77.39 126.81 76.08C127.2 74.89 126.58 74.2 124.29 73.39ZM130.6 63.99C129.11 63.99 126.95 65.64 126.07 67.93C125.65 69.02 125.94 69.68 126.86 69.68C127.68 69.68 128.48 69.25 129.42 68.31C130.2 67.52 130.88 66.58 131.28 65.62C131.77 64.41 131.5 64 130.6 63.99Z" fill="black" stroke="black" stroke-width="0.25" stroke-miterlimit="10"/>
<path d="M143.54 71.45C141.55 73.12 139.68 74.07 137.68 74.07C135.73 74.07 134.89 72.73 135.61 70.76C136.95 67.09 142.11 63.51 145.75 63.52C147.04 63.52 147.48 64.12 147.07 65.07C146.24 67.03 143 68.82 138.48 69.35C138.06 69.82 137.83 70.43 137.7 70.78C137.22 72.08 137.8 72.96 139.15 72.96C140.21 72.96 141.09 72.56 143.35 71.16C143.42 71.28 143.46 71.34 143.54 71.45ZM138.84 68.84C141.1 68.35 142.19 67.94 143.4 67.14C144.43 66.46 145.23 65.64 145.52 64.93C145.75 64.38 145.73 64.04 145.05 64.04C143.67 64.04 141.26 65.78 139.64 67.82C139.32 68.23 139.16 68.44 138.84 68.84Z" fill="black" stroke="black" stroke-width="0.25" stroke-miterlimit="10"/>
<path d="M159.68 71.28C157.19 73.48 156.41 74 155.27 74C154.66 74 154.28 73.6 154.62 72.69C154.71 72.45 154.87 72.13 155.68 70.9C156.69 69.38 157.2 68.63 158.23 67.16C158.72 66.45 159.21 65.64 159.33 65.37C159.51 64.96 159.4 64.71 159.03 64.71C158.06 64.71 156.46 65.8 154.08 67.93C152.37 69.46 151.97 69.91 149.43 73.78C148.7 73.78 148.34 73.78 147.62 73.78C149.78 70.34 150.84 68.77 153.12 65.6C153.19 65.49 153.27 65.35 153.33 65.21C153.52 64.76 153.24 64.62 152.01 64.59C152.07 64.44 152.1 64.37 152.17 64.23C154.3 63.87 155.02 63.78 156.42 63.53C156.45 63.55 156.47 63.56 156.5 63.58C154.96 65.56 154.23 66.53 152.78 68.54C156.67 64.86 158.95 63.54 160.51 63.54C161.56 63.54 161.84 64.11 161.48 64.93C161.3 65.34 161 65.81 160.65 66.29C159.33 68.13 158.69 69.05 157.41 70.96C156.84 71.81 156.59 72.22 156.52 72.41C156.44 72.63 156.46 72.84 156.75 72.84C157.09 72.84 157.67 72.45 158.71 71.57C158.95 71.38 159.2 71.17 159.45 70.96C159.55 71.1 159.59 71.16 159.68 71.28Z" fill="black" stroke="black" stroke-width="0.25" stroke-miterlimit="10"/>
<path d="M174.77 71.25C172.47 73.29 171.4 73.98 170.16 73.98C169.5 73.98 169.24 73.59 169.48 72.96C169.59 72.67 170.05 71.92 170.82 70.78C172.12 68.85 172.78 67.91 174.13 66.05C174.39 65.69 174.59 65.4 174.63 65.31C174.78 64.97 174.76 64.75 174.2 64.74C173.32 64.74 171.13 66.1 169.12 67.9C167.57 69.29 166.85 70.01 164.47 73.77C163.74 73.77 163.38 73.77 162.65 73.77C166.09 68.36 167.71 66.09 171.59 61C172.13 60.29 172.45 59.89 172.61 59.57C172.81 59.17 172.34 58.98 171.9 58.98C171.64 58.98 171.5 58.98 171.24 58.98C171.31 58.84 171.35 58.77 171.42 58.63C172.97 58.47 174.01 58.31 175.6 58C175.64 58.06 175.66 58.09 175.7 58.14C172.34 62.37 170.89 64.26 168.03 68.35C171.6 65.01 174.21 63.58 175.73 63.58C176.86 63.58 177.01 64.26 176.64 65.09C176.39 65.65 175.21 67.31 173.6 69.47C172.7 70.67 171.73 72.13 171.63 72.4C171.54 72.64 171.63 72.83 171.85 72.83C172.24 72.83 172.64 72.52 174.59 70.94C174.66 71.07 174.7 71.13 174.77 71.25Z" fill="black" stroke="black" stroke-width="0.25" stroke-miterlimit="10"/>
<path d="M189.71 71.36C187 73.48 186.23 73.98 185.26 73.98C184.58 73.98 184.4 73.69 184.68 72.99C184.92 72.39 185.04 72.18 186.34 70.29C183.42 72.9 181.6 74.01 179.89 74.01C178.53 74.01 177.83 73.02 178.55 71.25C180.01 67.62 185.6 63.62 188.87 63.63C189.93 63.63 190.41 64.11 190.23 64.94C190.54 64.51 190.69 64.29 191 63.86C191.04 63.83 191.06 63.82 191.11 63.79C191.74 63.73 192.05 63.7 192.68 63.64C192.74 63.67 192.76 63.68 192.82 63.71C192.67 63.91 192.63 63.96 192.45 64.18C189.49 68.01 186.87 71.97 186.67 72.45C186.6 72.62 186.69 72.76 186.89 72.76C187.11 72.76 187.5 72.56 188.55 71.79C188.93 71.52 189.11 71.38 189.49 71.11C189.59 71.21 189.63 71.26 189.71 71.36ZM188.79 64.12C187.68 64.12 186.26 64.81 184.63 66.18C182.97 67.58 181.26 69.61 180.66 71.08C180.14 72.36 180.54 72.83 181.42 72.83C182.64 72.83 184.31 71.52 185.45 70.53C187.25 68.96 188.83 67.02 189.55 65.43C189.93 64.64 189.65 64.13 188.79 64.12Z" fill="black" stroke="black" stroke-width="0.25" stroke-miterlimit="10"/>
<path d="M199.43 67.76C200.32 66.82 201.7 65.64 203.17 64.68C204.1 64.08 205.03 63.68 205.6 63.68C206.29 63.68 206.53 64.15 206.21 64.82C205.89 65.49 205.22 66.02 204.48 66.02C204.04 66.02 203.95 65.77 203.89 65.44C203.85 65.22 203.82 65.13 203.64 65.13C203.2 65.13 202.15 65.86 200.65 67.23C198.84 68.88 198.01 69.69 195.14 73.74C194.4 73.74 194.03 73.74 193.29 73.74C195.23 70.92 196.17 69.62 198.15 67C199.02 65.84 199.17 65.64 199.39 65.17C199.61 64.7 199.22 64.59 198.73 64.59C198.53 64.59 198.33 64.61 197.94 64.66C198.01 64.51 198.05 64.43 198.12 64.28C199.76 64.04 200.58 63.92 202.23 63.69C202.25 63.71 202.26 63.72 202.28 63.74C200.8 65.67 200.1 66.62 198.69 68.57C198.98 68.23 199.13 68.07 199.43 67.76Z" fill="black" stroke="black" stroke-width="0.25" stroke-miterlimit="10"/>
<path d="M211.5 71.28C209.3 73.22 208.21 73.96 206.99 73.97C206.18 73.97 205.98 73.53 206.35 72.66C206.55 72.19 207.07 71.37 208.01 70.09C209.2 68.48 209.79 67.69 211.01 66.12C211.32 65.72 211.61 65.32 211.7 65.14C211.91 64.7 211.7 64.63 210.38 64.6C210.45 64.46 210.48 64.39 210.55 64.24C211.54 64.18 212.07 64.11 214.77 63.69C214.8 63.72 214.81 63.73 214.84 63.76C212.4 66.82 211.26 68.28 208.95 71.46C208.66 71.85 208.4 72.16 208.26 72.49C208.16 72.72 208.26 72.84 208.45 72.84C208.87 72.84 209.66 72.33 211.3 71.02C211.38 71.13 211.42 71.18 211.5 71.28ZM215.76 61.29C215.04 61.29 214.82 60.81 215.2 60.07C215.57 59.36 216.34 58.84 217.01 58.84C217.68 58.84 217.92 59.45 217.57 60.12C217.24 60.78 216.4 61.3 215.76 61.29Z" fill="black" stroke="black" stroke-width="0.25" stroke-miterlimit="10"/>
<path d="M227.04 71.34C224.24 73.43 223.46 73.91 222.48 73.91C221.8 73.91 221.63 73.62 221.93 72.94C222.19 72.35 222.32 72.15 223.69 70.29C220.67 72.85 218.8 73.94 217.08 73.95C215.71 73.95 215.05 72.98 215.83 71.23C217.42 67.66 223.15 63.72 226.44 63.73C227.5 63.73 227.98 64.2 227.77 65.02C228.09 64.6 228.25 64.38 228.58 63.96C228.62 63.93 228.64 63.92 228.69 63.89C229.32 63.83 229.64 63.8 230.28 63.74C230.34 63.77 230.36 63.78 230.42 63.81C230.27 64.01 230.22 64.05 230.04 64.27C226.96 68.05 224.18 71.93 223.97 72.4C223.9 72.56 223.98 72.7 224.18 72.7C224.4 72.7 224.8 72.51 225.88 71.75C226.27 71.48 226.46 71.35 226.85 71.08C226.92 71.19 226.96 71.24 227.04 71.34ZM226.35 64.22C225.24 64.22 223.79 64.9 222.11 66.25C220.4 67.63 218.62 69.63 217.97 71.07C217.4 72.33 217.79 72.79 218.67 72.79C219.89 72.79 221.62 71.5 222.8 70.53C224.66 68.98 226.31 67.08 227.08 65.52C227.47 64.74 227.21 64.22 226.35 64.22Z" fill="black" stroke="black" stroke-width="0.25" stroke-miterlimit="10"/>
<path d="M256.66 72.41C255.28 73.63 254.06 74.04 252.64 74.04C251.56 74.04 250.64 73.42 250.25 72.21C247.62 73.63 246.07 74.06 244.5 74.06C241.79 74.07 240.67 72.72 241.72 70.54C242.32 69.3 243.57 68.06 245.22 67.19C246.42 66.55 247.7 66.14 250.69 65.18C251 64.26 251.48 63.36 251.61 63.11C253 60.52 255.53 58.72 257.96 58.73C259.47 58.74 259.97 59.7 259.31 60.9C258.87 61.69 257.96 62.49 256.67 63.19C255.72 63.71 254.83 64.09 252.96 64.76C252.26 66.97 252.21 68.87 252.43 69.96C254.74 68.38 255.53 67.67 255.93 66.91C256.18 66.43 255.99 66.28 255.04 66.21C255.13 66.04 255.17 65.96 255.26 65.8C257.11 65.8 258.04 65.81 259.89 65.81C259.81 65.96 259.77 66.03 259.69 66.18C258.4 66.29 258.03 66.5 255.93 68.14C254.77 69.06 253.68 69.85 252.5 70.75C252.74 72.25 253.29 72.89 254.44 72.89C255 72.89 255.67 72.68 256.52 72.15C256.58 72.26 256.61 72.31 256.66 72.41ZM250.37 65.91C247.55 66.74 245.16 68.24 244.3 69.98C243.49 71.63 244.12 72.85 246.05 72.84C247.28 72.84 248.5 72.32 250.09 71.48C249.74 70.51 249.82 68.69 250.37 65.91ZM257.42 59.48C256.43 59.48 255.07 60.44 254 62.42C253.69 63 253.47 63.44 253.22 64.1C255.94 62.94 256.98 62.04 257.6 60.91C258.1 60 258.04 59.48 257.42 59.48Z" fill="black" stroke="black" stroke-width="0.25" stroke-miterlimit="10"/>
<path d="M290.69 63.42C290.53 63.39 290.45 63.38 290.28 63.35C291.32 61.01 290.87 59.7 288.7 59.7C286.88 59.69 284.64 60.57 282.54 61.87C279.79 63.58 277.54 66.02 276.25 68.41C274.61 71.45 275.42 72.97 278.13 72.96C280.13 72.96 281.94 72.27 285.13 70.29C285.23 70.42 285.29 70.49 285.39 70.62C281.93 72.96 279.47 74 276.95 74C273.22 74.01 271.7 71.75 273.62 68.17C275.26 65.11 278.76 62.28 282.48 60.52C284.66 59.48 286.9 58.85 288.85 58.86C289.66 58.86 290.67 58.91 291.51 59.27C291.91 59.43 292.21 59.43 292.43 59.44C292.92 59.44 293.25 59.31 293.66 58.93C293.87 58.93 293.97 58.93 294.18 58.93C292.75 60.79 292.05 61.67 290.69 63.42Z" fill="black" stroke="black" stroke-width="0.25" stroke-miterlimit="10"/>
<path d="M297.99 71.92C295.87 73.21 294 73.81 292.4 73.81C290.11 73.81 289.46 72.6 290.5 70.68C291.84 68.21 295.06 65.78 298.33 64.58C299.55 64.13 300.64 63.94 301.65 63.94C303.64 63.95 304.45 65.07 303.37 66.95C302.44 68.58 300.38 70.47 297.99 71.92ZM301.05 64.4C299.97 64.4 298.5 65.06 296.79 66.35C294.81 67.84 293.18 69.54 292.23 71.29C291.51 72.62 291.88 73.34 293.03 73.34C294.1 73.34 295.38 72.66 296.99 71.47C298.87 70.07 300.7 68.06 301.63 66.43C302.37 65.11 302.1 64.4 301.05 64.4Z" fill="black" stroke="black" stroke-width="0.25" stroke-miterlimit="10"/>
<path d="M321.46 71.34C319.24 72.96 317.75 73.73 316.62 73.74C315.99 73.74 315.86 73.37 316.24 72.7C316.37 72.48 316.66 72.09 317.39 71.24C319.09 69.25 319.93 68.3 321.64 66.38C322.01 65.96 322.23 65.68 322.29 65.57C322.44 65.31 322.34 65.12 322.07 65.12C321.34 65.12 319.5 66.11 317.41 67.6C315.36 69.06 314.29 70.02 311.39 73.54C310.66 73.54 310.3 73.54 309.57 73.54C310.3 72.69 310.67 72.27 311.39 71.45C314.35 68.1 316.25 65.91 316.41 65.63C316.61 65.29 316.51 65.1 316.19 65.1C315.36 65.1 313.19 66.33 310.77 68.14C309.3 69.25 308.54 69.92 305.39 73.54C304.66 73.54 304.3 73.54 303.57 73.54C304.71 72.22 305.27 71.58 306.4 70.33C309.01 67.43 310.4 65.7 310.55 65.45C310.74 65.13 310.48 64.98 309.82 64.98C309.58 64.98 309.45 64.98 309.21 64.98C309.29 64.84 309.33 64.77 309.41 64.64C311.15 64.38 312.02 64.25 313.76 63.98C313.78 64 313.79 64.01 313.81 64.02C312.18 65.82 311.38 66.69 309.79 68.48C313.75 65.38 316.31 63.98 317.79 63.99C318.77 63.99 318.95 64.51 318.49 65.28C318.25 65.69 317.23 66.87 315.62 68.51C318.7 66.14 320.34 65.09 321.93 64.43C322.71 64.11 323.23 64 323.72 64C324.62 64 324.78 64.58 324.33 65.35C324.24 65.5 323.99 65.84 323.9 65.94C321.97 68.07 321.02 69.11 319.1 71.31C318.66 71.81 318.34 72.22 318.29 72.3C318.15 72.54 318.18 72.66 318.38 72.66C318.79 72.66 319.43 72.3 320.62 71.48C320.95 71.25 321.12 71.14 321.46 70.91C321.54 71.01 321.59 71.07 321.67 71.17C321.59 71.24 321.54 71.28 321.46 71.34Z" fill="black" stroke="black" stroke-width="0.25" stroke-miterlimit="10"/>
<path d="M333.75 71.36C331.48 72.89 329.44 73.77 327.44 73.77C325.49 73.77 324.88 72.53 325.93 70.73C327.89 67.37 333.54 64.03 337.18 64.03C338.46 64.03 338.83 64.59 338.29 65.48C337.18 67.3 333.66 68.94 329.04 69.43C328.55 69.86 328.22 70.42 328.03 70.74C327.33 71.93 327.76 72.74 329.11 72.74C330.17 72.74 331.13 72.37 333.62 71.09C333.67 71.2 333.7 71.25 333.75 71.36ZM329.49 68.96C331.84 68.51 332.99 68.14 334.32 67.4C335.45 66.77 336.37 66.01 336.77 65.35C337.08 64.84 337.1 64.52 336.43 64.52C335.05 64.52 332.41 66.15 330.46 68.03C330.07 68.4 329.88 68.59 329.49 68.96ZM341.01 59.31C341.28 59.15 341.51 59.08 341.76 59.08C342.25 59.08 342.41 59.46 342.13 59.91C341.96 60.18 341.72 60.39 341.33 60.55C339.1 61.5 337.98 61.97 335.77 62.89C335.43 62.89 335.26 62.89 334.92 62.89C337.33 61.49 338.55 60.79 341.01 59.31Z" fill="black" stroke="black" stroke-width="0.25" stroke-miterlimit="10"/>
<path d="M345.02 67.92C346.02 67.04 347.52 65.92 349.06 65.01C350.04 64.44 351 64.05 351.55 64.06C352.22 64.06 352.4 64.51 352.01 65.15C351.62 65.79 350.9 66.29 350.18 66.29C349.75 66.29 349.7 66.06 349.67 65.74C349.66 65.53 349.64 65.44 349.47 65.44C349.04 65.44 347.93 66.13 346.28 67.42C344.3 68.97 343.38 69.71 339.97 73.51C339.24 73.51 338.87 73.51 338.14 73.51C340.45 70.87 341.58 69.66 343.85 67.21C344.85 66.12 345.02 65.93 345.29 65.48C345.56 65.04 345.19 64.93 344.71 64.93C344.52 64.93 344.31 64.95 343.92 64.99C344.01 64.85 344.05 64.77 344.14 64.63C345.78 64.4 346.6 64.29 348.23 64.06C348.25 64.08 348.26 64.09 348.28 64.1C346.62 65.95 345.81 66.84 344.17 68.66C344.52 68.36 344.69 68.21 345.02 67.92Z" fill="black" stroke="black" stroke-width="0.25" stroke-miterlimit="10"/>
<path d="M358.62 71.36C356.15 73.03 354.47 73.75 352.67 73.75C350.45 73.75 349.85 72.55 351.18 70.37C352.39 68.38 354.75 66.57 357.2 65.37C358.88 64.55 360.54 64.08 362 64.08C363.46 64.08 364.07 64.81 363.45 65.8C363.1 66.37 362.3 66.81 361.68 66.81C361.01 66.81 361.01 66.39 361.27 65.97C361.5 65.59 362.01 65.36 362.26 64.96C362.42 64.71 362.19 64.54 361.64 64.53C360.68 64.53 359.49 64.91 358.4 65.54C356.29 66.78 354.36 68.55 353.2 70.45C352.26 71.99 352.47 72.94 353.83 72.94C355.1 72.94 356.34 72.37 358.38 71.14C358.47 71.23 358.52 71.27 358.62 71.36Z" fill="black" stroke="black" stroke-width="0.25" stroke-miterlimit="10"/>
<path d="M368.93 71.23C366.51 73.04 365.34 73.74 364.15 73.74C363.37 73.74 363.23 73.33 363.72 72.51C363.99 72.07 364.62 71.3 365.71 70.11C367.09 68.6 367.78 67.87 369.16 66.39C369.51 66.01 369.84 65.63 369.95 65.47C370.21 65.05 370.01 64.98 368.74 64.96C368.82 64.82 368.87 64.76 368.95 64.62C369.92 64.56 370.44 64.5 373.09 64.09C373.11 64.12 373.12 64.13 373.15 64.15C370.44 67.07 369.13 68.43 366.43 71.39C366.09 71.76 365.8 72.04 365.61 72.35C365.48 72.57 365.55 72.68 365.74 72.68C366.14 72.68 367 72.21 368.77 70.98C368.83 71.09 368.86 71.13 368.93 71.23ZM374.3 61.77C373.61 61.77 373.44 61.31 373.88 60.58C374.3 59.88 375.09 59.36 375.73 59.37C376.37 59.37 376.56 59.98 376.16 60.63C375.78 61.27 374.92 61.77 374.3 61.77Z" fill="black" stroke="black" stroke-width="0.25" stroke-miterlimit="10"/>
<path d="M380.86 71.9C378.72 73.15 376.86 73.73 375.3 73.73C373.08 73.73 372.53 72.55 373.68 70.68C375.16 68.28 378.43 65.91 381.65 64.73C382.85 64.29 383.91 64.09 384.88 64.1C386.79 64.1 387.52 65.21 386.37 67.05C385.38 68.65 383.28 70.49 380.86 71.9ZM384.27 64.55C383.23 64.55 381.77 65.21 380.05 66.46C378.05 67.92 376.36 69.56 375.31 71.27C374.51 72.56 374.83 73.26 375.94 73.26C376.98 73.26 378.28 72.6 379.91 71.44C381.83 70.08 383.72 68.12 384.72 66.53C385.51 65.26 385.29 64.55 384.27 64.55Z" fill="black" stroke="black" stroke-width="0.25" stroke-miterlimit="10"/>
</g>
<defs>
<clipPath id="clip0">
<rect width="408" height="79" fill="white"/>
</clipPath>
</defs>
</svg>
